<?xml version="1.0" encoding="utf-8"?>
<!-- Generator: Adobe Illustrator 21.1.0, SVG Export Plug-In . SVG Version: 6.00 Build 0)  -->
<svg version="1.1" id="Слой_1" xmlns="http://www.w3.org/2000/svg" xmlns:xlink="http://www.w3.org/1999/xlink" x="0px" y="0px"
	 viewBox="0 0 200 200" style="enable-background:new 0 0 200 200;" xml:space="preserve">
<style type="text/css">
	.st0{fill:url(#SVGID_1_);}
	.st1{fill:#602A67;}
	.st2{fill:url(#SVGID_2_);}
</style>
<linearGradient id="SVGID_1_" gradientUnits="userSpaceOnUse" x1="36.7775" y1="149.072" x2="136.327" y2="149.072">
	<stop  offset="0" style="stop-color:#E3414D"/>
	<stop  offset="1" style="stop-color:#9A2167"/>
</linearGradient>
<path class="st0" d="M123.7,153.1C123.7,153.1,123.7,153.1,123.7,153.1C123.7,153.1,123.7,153.1,123.7,153.1c3.7-4.7,6-10.6,6-17.1
	c0-6.4-2.2-12.3-5.9-17c0,0,0,0,0,0L109,99.9l-8.3,10.7l-62.4,80.7c-2.9,3.4-1.7,6.9,2.9,6.9h43.3c3.7,0,5.5-1.4,7.2-4l44.6-57.4
	L123.7,153.1z"/>
<g>
	<path class="st1" d="M115.4,129.7c3.7,4.7,5.9,10.6,5.9,17c0,6.5-2.2,12.4-6,17.1c0,0,0,0,0,0l8.3-10.7c0,0,0,0,0,0
		c3.7-4.7,6-10.6,6-17.1c0-6.4-2.2-12.3-5.9-17c0,0,0,0,0,0L109,99.9l-8.3,10.7L115.4,129.7C115.4,129.7,115.4,129.7,115.4,129.7z"
		/>
	<linearGradient id="SVGID_2_" gradientUnits="userSpaceOnUse" x1="36.7775" y1="77.4406" x2="165.0116" y2="77.4406">
		<stop  offset="0" style="stop-color:#4C3188"/>
		<stop  offset="1" style="stop-color:#9A2167"/>
	</linearGradient>
	<path class="st2" d="M92.6,6.1c-2-2.6-3.8-4.3-7.8-4.3H41.2c-4.6,0-5.8,3.7-2.9,7.2l2.7,3.5l68,87.4l0,0l14.7,19.1c0,0,0,0,0,0
		c3.7,4.7,5.9,10.6,5.9,17c0,6.5-2.2,12.4-6,17.1c0,0,0,0,0,0c0,0,0,0,0,0l12.7-16.3L165,99.9L92.6,6.1z"/>
</g>
</svg>
