<?xml version="1.0" encoding="utf-8"?>
<!-- Generator: Adobe Illustrator 21.1.0, SVG Export Plug-In . SVG Version: 6.00 Build 0)  -->
<svg version="1.1" id="Vrstva_1" xmlns="http://www.w3.org/2000/svg" xmlns:xlink="http://www.w3.org/1999/xlink" x="0px" y="0px"
	 viewBox="0 0 1573.9 321" style="enable-background:new 0 0 1573.9 321;" xml:space="preserve">
<style type="text/css">
	.st0{fill:url(#SVGID_1_);}
	.st1{fill:#602A67;}
	.st2{fill:url(#SVGID_2_);}
	.st3{display:none;fill:#662483;}
	.st4{display:none;fill:#20204C;}
	.st5{fill:#FFFFFF;stroke:#FFFFFF;stroke-width:10;stroke-miterlimit:10;}
	.st6{fill:#FFFFFF;}
</style>
<g>
	<linearGradient id="SVGID_1_" gradientUnits="userSpaceOnUse" x1="1336.3744" y1="238.5669" x2="1481.5758" y2="238.5669">
		<stop  offset="0" style="stop-color:#E3414D"/>
		<stop  offset="1" style="stop-color:#9A2167"/>
	</linearGradient>
	<path class="st0" d="M1463.1,244.4C1463.1,244.4,1463.1,244.4,1463.1,244.4C1463.1,244.4,1463.1,244.4,1463.1,244.4
		c5.4-6.8,8.7-15.5,8.7-24.9c0-9.4-3.3-18-8.7-24.8c0,0,0,0,0,0l-21.5-27.8l-12,15.6l-91,117.7c-4.2,5-2.5,10.1,4.2,10.1h63.1
		c5.5,0,8-2.1,10.5-5.9l65.1-83.7L1463.1,244.4z"/>
	<g>
		<path class="st1" d="M1451.1,210.3c5.4,6.8,8.7,15.4,8.7,24.8c0,9.4-3.3,18.1-8.7,24.9c0,0,0,0,0,0l12.1-15.6c0,0,0,0,0,0
			c5.5-6.8,8.7-15.5,8.7-24.9c0-9.4-3.3-18-8.7-24.8c0,0,0,0,0,0l-21.5-27.8l-12,15.6L1451.1,210.3
			C1451.1,210.3,1451.1,210.3,1451.1,210.3z"/>
		<linearGradient id="SVGID_2_" gradientUnits="userSpaceOnUse" x1="1336.3744" y1="134.0865" x2="1523.4147" y2="134.0865">
			<stop  offset="0" style="stop-color:#4C3188"/>
			<stop  offset="1" style="stop-color:#9A2167"/>
		</linearGradient>
		<path class="st2" d="M1417.8,30.1c-2.9-3.8-5.5-6.3-11.3-6.3h-63.5c-6.7,0-8.4,5.5-4.2,10.5l3.9,5l99.1,127.5l0,0l21.5,27.8
			c0,0,0,0,0,0c5.4,6.8,8.7,15.4,8.7,24.8c0,9.4-3.3,18.1-8.7,24.9c0,0,0,0,0,0c0,0,0,0,0,0l18.5-23.8l41.8-53.8L1417.8,30.1z"/>
	</g>
</g>
<path class="st3" d="M542.1,213.6c-0.4,0-0.5,0.1-0.5,0.5v18.3c0,0.4,0.1,0.5,0.5,0.5h11.4c0.4,0,0.5-0.2,0.5-0.5v-0.8
	c0-0.4-0.2-0.5-0.5-0.5h-10v-7.1h8.4c0.4,0,0.5-0.2,0.5-0.5v-0.8c0-0.4-0.2-0.5-0.5-0.5h-8.4v-6.8h9.7c0.4,0,0.5-0.2,0.5-0.5v-0.8
	c0-0.4-0.2-0.5-0.5-0.5H542.1z M519.7,213.6c-0.4,0-0.5,0.1-0.5,0.5v0.8c0,0.4,0.1,0.5,0.5,0.5h5.5v17c0,0.4,0.1,0.5,0.5,0.5h0.9
	c0.4,0,0.5-0.1,0.5-0.5v-17h5.5c0.4,0,0.5-0.1,0.5-0.5v-0.8c0-0.4-0.1-0.5-0.5-0.5H519.7z M510.3,225.7h-7.4l3.3-8.4
	c0.2-0.7,0.3-1.3,0.3-1.9h0.1c0,0.5,0.1,1.2,0.4,1.9L510.3,225.7z M507.8,214c-0.1-0.3-0.4-0.4-0.7-0.4h-0.8c-0.4,0-0.6,0.2-0.7,0.5
	l-7.3,18.5c-0.1,0.4,0,0.5,0.4,0.5h0.7c0.7,0,0.8-0.1,1-0.5l2.1-5.2h8.6l2.1,5.2c0.1,0.3,0.4,0.5,1,0.5h0.8c0.4,0,0.5-0.2,0.4-0.5
	L507.8,214z M480.3,213.6c-0.4,0-0.5,0.1-0.5,0.5v18.3c0,0.4,0.1,0.5,0.5,0.5H491c0.4,0,0.5-0.2,0.5-0.5v-0.8c0-0.4-0.2-0.5-0.5-0.5
	h-9.3v-17c0-0.4-0.1-0.5-0.5-0.5H480.3z M459,223.9v-8.4h5.7c2.7,0,4.3,1.6,4.3,4.2c0,2.6-1.6,4.2-4.3,4.2H459z M457.6,213.6
	c-0.4,0-0.5,0.1-0.5,0.5v18.3c0,0.4,0.1,0.5,0.5,0.5h0.9c0.4,0,0.5-0.1,0.5-0.5v-6.8h5.9c3.8,0,6.2-2.2,6.2-6c0-3.8-2.4-6.1-6.2-6.1
	H457.6z M445.7,213.6c-0.4,0-0.5,0.1-0.8,0.5l-6.7,12l-6.8-12c-0.2-0.3-0.4-0.4-0.8-0.4h-0.7c-0.4,0-0.5,0.1-0.5,0.5v18.3
	c0,0.4,0.1,0.5,0.5,0.5h0.8c0.4,0,0.5-0.1,0.5-0.5v-11.1c0-1.6-0.1-3.2-0.3-4.9h0.1c0.7,1.7,1.3,3.1,2,4.2l4.2,7.4
	c0.1,0.3,0.4,0.4,0.7,0.4h0.5c0.3,0,0.5-0.1,0.6-0.4l4.2-7.3c0.8-1.5,1.5-2.9,2.1-4.3h0.1c-0.2,1.6-0.3,3.2-0.3,4.8l0,11.2
	c0,0.4,0.1,0.5,0.5,0.5h0.8c0.4,0,0.5-0.1,0.5-0.5v-18.3c0-0.4-0.1-0.5-0.5-0.5H445.7z M408.5,213.6c-0.4,0-0.5,0.1-0.5,0.5v18.3
	c0,0.4,0.1,0.5,0.5,0.5H420c0.4,0,0.5-0.2,0.5-0.5v-0.8c0-0.4-0.2-0.5-0.5-0.5h-10v-7.1h8.4c0.4,0,0.5-0.2,0.5-0.5v-0.8
	c0-0.4-0.2-0.5-0.5-0.5h-8.4v-6.8h9.7c0.4,0,0.5-0.2,0.5-0.5v-0.8c0-0.4-0.2-0.5-0.5-0.5H408.5z M386.1,213.6
	c-0.4,0-0.5,0.1-0.5,0.5v0.8c0,0.4,0.1,0.5,0.5,0.5h5.5v17c0,0.4,0.1,0.5,0.5,0.5h0.9c0.4,0,0.5-0.1,0.5-0.5v-17h5.5
	c0.4,0,0.5-0.1,0.5-0.5v-0.8c0-0.4-0.1-0.5-0.5-0.5H386.1z M364.7,226.5c0,3.2-1.9,5-5.5,5c-3.6,0-5.6-1.8-5.6-5v-6.5
	c0-3.2,2-5,5.6-5c3.6,0,5.5,1.8,5.5,5V226.5z M351.6,226.5c0,4.3,2.7,6.9,7.5,6.9c4.8,0,7.5-2.6,7.5-6.9v-6.5c0-4.3-2.7-6.9-7.5-6.9
	c-4.8,0-7.5,2.6-7.5,6.9V226.5z M335.8,223c-0.4,0-0.5,0.1-0.5,0.5v0.8c0,0.4,0.1,0.5,0.5,0.5h5.3v2.1c0,2.9-2,4.7-5.6,4.7
	c-3.6,0-5.6-1.9-5.6-5.1v-6.5c0-3.2,1.9-5,5.5-5c3.1,0,4.6,1.1,5.4,3.5c0.1,0.3,0.4,0.4,0.7,0.3l0.8-0.3c0.4-0.1,0.5-0.3,0.3-0.7
	c-1-3.1-3.2-4.7-7.3-4.7c-4.8,0-7.5,2.6-7.5,6.9v6.4c0,4.3,2.7,6.9,7.5,6.9c4.8,0,7.5-2.5,7.5-6.5v-3.4c0-0.4-0.1-0.5-0.5-0.5H335.8
	z M317.1,226.5c0,3.2-1.9,5-5.5,5c-3.6,0-5.6-1.8-5.6-5v-6.5c0-3.2,2-5,5.6-5c3.6,0,5.5,1.8,5.5,5V226.5z M304.1,226.5
	c0,4.3,2.7,6.9,7.5,6.9c4.8,0,7.5-2.6,7.5-6.9v-6.5c0-4.3-2.7-6.9-7.5-6.9c-4.8,0-7.5,2.6-7.5,6.9V226.5z M285.5,213.6
	c-0.4,0-0.5,0.1-0.5,0.5v18.3c0,0.4,0.1,0.5,0.5,0.5h10.7c0.4,0,0.5-0.2,0.5-0.5v-0.8c0-0.4-0.2-0.5-0.5-0.5h-9.3v-17
	c0-0.4-0.1-0.5-0.5-0.5H285.5z"/>
<path class="st4" d="M535.2,192.3c13.5,0,21.6-4.8,28.8-12.5l-9.8-9.9c-5.5,5-10.4,8.2-18.5,8.2c-12,0-20.4-10-20.4-22.1v-0.2
	c0-12,8.5-21.9,20.4-21.9c7,0,12.5,3,18,7.9l9.8-11.3c-6.5-6.4-14.4-10.8-27.7-10.8c-21.6,0-36.6,16.4-36.6,36.3v0.2
	C499.2,176.4,514.5,192.3,535.2,192.3 M469.3,191.1h15.5v-70.2h-15.5V191.1z M419.9,191.1h15.5v-56h21.4v-14.2h-58.2v14.2h21.4
	V191.1z M365.8,192.1c15.2,0,25.8-7.8,25.8-21.8v-0.2c0-12.2-8-17.4-22.3-21.1c-12.1-3.1-15.2-4.6-15.2-9.2v-0.2
	c0-3.4,3.1-6.1,9-6.1c5.9,0,12,2.6,18.3,6.9l8-11.6c-7.1-5.7-15.9-8.9-26.1-8.9c-14.3,0-24.6,8.4-24.6,21.2v0.2
	c0,13.9,9.1,17.9,23.3,21.5c11.7,3,14.1,5,14.1,8.9v0.2c0,4.1-3.8,6.6-10.1,6.6c-8,0-14.7-3.3-21-8.5l-9.1,10.9
	C344.4,188.4,355.2,192.1,365.8,192.1 M307.8,191.1h15.5v-70.2h-15.5V191.1z M262.3,192.3c12.8,0,22.8-5,30-11.1v-30.5h-30.5V164
	h15.6v10c-3.9,2.8-8.9,4.2-14.5,4.2c-12.4,0-21.3-9.4-21.3-22.3v-0.2c0-11.9,8.9-21.9,20.2-21.9c8.1,0,12.9,2.6,18.4,7.1l9.7-11.7
	c-7.3-6.2-15-9.6-27.6-9.6c-21.3,0-36.8,16.4-36.8,36.3v0.2C225.3,177,240.4,192.3,262.3,192.3 M177.5,178.1
	c-12.4,0-21.3-10-21.3-22.1v-0.2c0-12,8.6-21.9,21.1-21.9c12.4,0,21.3,10,21.3,22.1v0.2C198.5,168.3,189.9,178.1,177.5,178.1
	 M177.3,192.3c21.7,0,37.4-16.4,37.4-36.3v-0.2c0-20-15.6-36.1-37.2-36.1c-21.7,0-37.4,16.4-37.4,36.3v0.2
	C140,176.2,155.6,192.3,177.3,192.3 M85,191.1h50.5v-14h-35v-56.2H85V191.1z"/>
<g>
	<path class="st5" d="M120.8,234.5c-5.6,2.9-16.8,5.9-31.1,5.9c-33.2,0-58.2-22.1-58.2-62.7c0-38.8,25-65.1,61.5-65.1
		c14.7,0,23.9,3.3,28,5.5l-3.7,13.1c-5.8-2.9-14-5.1-23.8-5.1c-27.6,0-45.9,18.6-45.9,51.1c0,30.3,16.6,49.8,45.3,49.8
		c9.3,0,18.7-2,24.8-5.1L120.8,234.5z"/>
	<path class="st5" d="M170.5,199.6l-12.2,39h-15.7l40-124h18.3l40.2,124h-16.2l-12.6-39H170.5z M209.1,187.1l-11.5-35.7
		c-2.6-8.1-4.4-15.4-6.1-22.6h-0.3c-1.7,7.4-3.7,14.9-5.9,22.4l-11.5,35.9H209.1z"/>
	<path class="st5" d="M269.2,116.3c7.7-1.7,18.7-2.6,29.2-2.6c16.2,0,26.7,3.1,34.1,10.1c5.9,5.5,9.3,14,9.3,23.5
		c0,16.4-9.8,27.2-22.2,31.6v0.6c9.1,3.3,14.5,12.1,17.3,25c3.8,17.3,6.6,29.2,9.1,34h-15.7c-1.9-3.5-4.5-14.2-7.9-29.6
		c-3.5-17.1-9.8-23.5-23.6-24.1h-14.3v53.7h-15.2V116.3z M284.4,172.7h15.5c16.2,0,26.6-9.4,26.6-23.5c0-16-11-23-27.1-23.2
		c-7.3,0-12.6,0.7-15,1.5V172.7z"/>
	<path class="st5" d="M464.1,233c-6.8,2.6-20.3,6.8-36.2,6.8c-17.8,0-32.5-4.8-44-16.4c-10.1-10.3-16.4-26.9-16.4-46.2
		c0.2-37,24.3-64,63.8-64c13.6,0,24.3,3.1,29.4,5.7l-3.7,13.1c-6.3-2.9-14.2-5.3-26-5.3c-28.7,0-47.3,18.8-47.3,49.8
		c0,31.4,18,50,45.4,50c10,0,16.8-1.5,20.3-3.3v-37h-23.9v-12.9h38.8V233z"/>
	<path class="st5" d="M598.8,175.3c0,42.7-24.6,65.3-54.7,65.3c-31.1,0-52.9-25.4-52.9-62.9c0-39.4,23.2-65.1,54.7-65.1
		C578.1,112.6,598.8,138.5,598.8,175.3z M507.5,177.3c0,26.5,13.6,50.2,37.6,50.2c24.1,0,37.7-23.4,37.7-51.5
		c0-24.6-12.2-50.4-37.6-50.4C520.1,125.6,507.5,150.1,507.5,177.3z"/>
	<path class="st5" d="M677.3,116.3c7.7-1.7,18.7-2.6,29.2-2.6c16.2,0,26.7,3.1,34.1,10.1c5.9,5.5,9.3,14,9.3,23.5
		c0,16.4-9.8,27.2-22.2,31.6v0.6c9.1,3.3,14.5,12.1,17.3,25c3.8,17.3,6.6,29.2,9.1,34h-15.7c-1.9-3.5-4.5-14.2-7.9-29.6
		c-3.5-17.1-9.8-23.5-23.6-24.1h-14.3v53.7h-15.2V116.3z M692.5,172.7H708c16.2,0,26.6-9.4,26.6-23.5c0-16-11-23-27.1-23.2
		c-7.3,0-12.6,0.7-15,1.5V172.7z"/>
	<path class="st5" d="M883.3,175.3c0,42.7-24.6,65.3-54.7,65.3c-31.1,0-52.9-25.4-52.9-62.9c0-39.4,23.2-65.1,54.7-65.1
		C862.5,112.6,883.3,138.5,883.3,175.3z M791.9,177.3c0,26.5,13.6,50.2,37.6,50.2c24.1,0,37.7-23.4,37.7-51.5
		c0-24.6-12.2-50.4-37.6-50.4C804.5,125.6,791.9,150.1,791.9,177.3z"/>
	<path class="st5" d="M911.8,219.1c6.8,4.4,16.8,8.1,27.3,8.1c15.5,0,24.6-8.6,24.6-21.2c0-11.6-6.3-18.2-22.2-24.6
		c-19.2-7.2-31.1-17.7-31.1-35.1c0-19.3,15.2-33.7,38.1-33.7c12.1,0,20.8,2.9,26,6.1l-4.2,13.1c-3.8-2.2-11.7-5.9-22.4-5.9
		c-16.1,0-22.2,10.1-22.2,18.6c0,11.6,7.2,17.3,23.4,23.9c19.9,8.1,30.1,18.2,30.1,36.4c0,19.1-13.5,35.7-41.2,35.7
		c-11.4,0-23.8-3.5-30.1-7.9L911.8,219.1z"/>
	<path class="st5" d="M1033.2,128.2h-35.8v-13.6h87.2v13.6h-36v110.3h-15.4V128.2z"/>
	<path class="st5" d="M1204.4,175.3c0,42.7-24.6,65.3-54.7,65.3c-31.1,0-52.9-25.4-52.9-62.9c0-39.4,23.2-65.1,54.7-65.1
		C1183.6,112.6,1204.4,138.5,1204.4,175.3z M1113,177.3c0,26.5,13.6,50.2,37.6,50.2c24.1,0,37.7-23.4,37.7-51.5
		c0-24.6-12.2-50.4-37.6-50.4C1125.6,125.6,1113,150.1,1113,177.3z"/>
	<path class="st5" d="M1260.8,238.6l-38.4-124h16.4l18.3,61.1c5.1,16.7,9.4,31.8,12.6,46.3h0.3c3.3-14.3,8.2-30,13.5-46.2l19.9-61.2
		h16.2l-42.1,124H1260.8z"/>
</g>
<g>
	<path class="st6" d="M694.2,282.3c0,0.3,0,0.5,0,0.8c0,0.2-0.1,0.4-0.2,0.5s-0.2,0.2-0.3,0.3c-0.1,0.1-0.2,0.1-0.3,0.1H685v25.7
		c0,0.1,0,0.2-0.1,0.3s-0.2,0.2-0.3,0.2c-0.2,0.1-0.4,0.1-0.6,0.1c-0.3,0-0.6,0.1-1,0.1c-0.4,0-0.7,0-1-0.1s-0.5-0.1-0.6-0.1
		c-0.2-0.1-0.3-0.1-0.3-0.2s-0.1-0.2-0.1-0.3V284h-8.4c-0.1,0-0.2,0-0.3-0.1c-0.1-0.1-0.2-0.2-0.2-0.3s-0.1-0.3-0.2-0.5
		c0-0.2-0.1-0.5-0.1-0.8c0-0.3,0-0.5,0.1-0.8c0-0.2,0.1-0.4,0.2-0.5c0.1-0.1,0.1-0.2,0.2-0.3c0.1-0.1,0.2-0.1,0.3-0.1h20.8
		c0.1,0,0.2,0,0.3,0.1c0.1,0.1,0.2,0.2,0.3,0.3c0.1,0.1,0.1,0.3,0.2,0.5C694.2,281.8,694.2,282,694.2,282.3z"/>
	<path class="st6" d="M724.8,308.9c0.1,0.3,0.2,0.6,0.2,0.8s-0.1,0.4-0.2,0.5c-0.1,0.1-0.3,0.2-0.6,0.2c-0.3,0-0.7,0-1.1,0
		s-0.9,0-1.1,0c-0.3,0-0.5-0.1-0.6-0.1c-0.1-0.1-0.3-0.1-0.3-0.2s-0.1-0.2-0.2-0.3l-2.6-7.2h-12.5l-2.5,7.1c0,0.1-0.1,0.3-0.2,0.4
		s-0.2,0.2-0.3,0.3c-0.1,0.1-0.4,0.1-0.6,0.1c-0.3,0-0.6,0-1.1,0c-0.4,0-0.8,0-1.1-0.1c-0.3,0-0.5-0.1-0.6-0.2
		c-0.1-0.1-0.2-0.3-0.2-0.5c0-0.2,0.1-0.5,0.2-0.8l10.1-27.6c0.1-0.2,0.1-0.3,0.2-0.4c0.1-0.1,0.2-0.2,0.4-0.3
		c0.2-0.1,0.4-0.1,0.7-0.1c0.3,0,0.7,0,1.1,0c0.5,0,0.9,0,1.2,0c0.3,0,0.6,0.1,0.8,0.1c0.2,0.1,0.4,0.1,0.5,0.3
		c0.1,0.1,0.2,0.3,0.3,0.4L724.8,308.9z M711.9,284.5L711.9,284.5l-5.2,14.8h10.4L711.9,284.5z"/>
	<path class="st6" d="M769.2,309.7c0,0.1,0,0.2-0.1,0.3c-0.1,0.1-0.2,0.2-0.3,0.2c-0.2,0.1-0.4,0.1-0.6,0.1c-0.2,0-0.6,0.1-1,0.1
		c-0.4,0-0.7,0-0.9-0.1s-0.5-0.1-0.6-0.1c-0.2-0.1-0.3-0.1-0.3-0.2s-0.1-0.2-0.1-0.3v-25.8h0l-10.6,26c0,0.1-0.1,0.2-0.2,0.3
		c-0.1,0.1-0.2,0.1-0.4,0.2c-0.2,0.1-0.4,0.1-0.6,0.1c-0.2,0-0.5,0-0.8,0c-0.3,0-0.6,0-0.8,0c-0.2,0-0.4-0.1-0.6-0.1
		c-0.2-0.1-0.3-0.1-0.4-0.2c-0.1-0.1-0.1-0.2-0.2-0.3l-10.1-26h0v25.8c0,0.1,0,0.2-0.1,0.3c-0.1,0.1-0.2,0.2-0.3,0.2
		c-0.2,0.1-0.4,0.1-0.6,0.1s-0.6,0.1-1,0.1c-0.4,0-0.7,0-1-0.1c-0.3,0-0.5-0.1-0.6-0.1c-0.2-0.1-0.3-0.1-0.3-0.2s-0.1-0.2-0.1-0.3
		v-27.3c0-0.6,0.2-1.1,0.5-1.4s0.7-0.4,1.2-0.4h2.4c0.5,0,0.9,0,1.3,0.1c0.4,0.1,0.7,0.2,1,0.4c0.3,0.2,0.5,0.5,0.7,0.8
		c0.2,0.3,0.4,0.7,0.5,1.1l8.6,21.5h0.1l8.9-21.4c0.2-0.5,0.4-0.8,0.6-1.2s0.4-0.6,0.7-0.8c0.2-0.2,0.5-0.3,0.8-0.4
		c0.3-0.1,0.6-0.1,1-0.1h2.6c0.2,0,0.5,0,0.7,0.1c0.2,0.1,0.4,0.2,0.5,0.3c0.1,0.1,0.3,0.3,0.4,0.5c0.1,0.2,0.1,0.5,0.1,0.8V309.7z"
		/>
	<path class="st6" d="M809.1,295.1c0,2.4-0.3,4.6-0.9,6.5c-0.6,1.9-1.4,3.6-2.6,4.9c-1.1,1.4-2.6,2.4-4.3,3.1
		c-1.7,0.7-3.7,1.1-6,1.1c-2.3,0-4.2-0.3-5.8-1c-1.6-0.7-3-1.6-4.1-2.9c-1.1-1.3-1.9-2.8-2.4-4.7c-0.5-1.9-0.8-4-0.8-6.5
		c0-2.3,0.3-4.5,0.9-6.4c0.6-1.9,1.4-3.5,2.6-4.9c1.1-1.3,2.6-2.4,4.3-3.1c1.7-0.7,3.7-1.1,6-1.1c2.2,0,4.1,0.3,5.8,1s3,1.6,4.1,2.9
		c1.1,1.3,1.9,2.8,2.4,4.7C808.8,290.6,809.1,292.7,809.1,295.1z M804.9,295.4c0-1.7-0.2-3.2-0.5-4.7c-0.3-1.4-0.8-2.7-1.5-3.8
		c-0.7-1.1-1.6-1.9-2.8-2.5c-1.2-0.6-2.6-0.9-4.3-0.9c-1.7,0-3.2,0.3-4.4,1c-1.2,0.6-2.1,1.5-2.9,2.6c-0.7,1.1-1.3,2.3-1.6,3.8
		s-0.5,2.9-0.5,4.5c0,1.7,0.1,3.3,0.4,4.8s0.8,2.7,1.5,3.8s1.6,1.9,2.8,2.5c1.2,0.6,2.6,0.9,4.4,0.9c1.7,0,3.2-0.3,4.4-1
		c1.2-0.6,2.1-1.5,2.9-2.6c0.7-1.1,1.2-2.4,1.5-3.8C804.7,298.5,804.9,297,804.9,295.4z"/>
	<path class="st6" d="M853.4,309.7c0,0.1,0,0.3-0.1,0.3s-0.2,0.2-0.3,0.2s-0.4,0.1-0.6,0.1c-0.3,0-0.6,0-1,0c-0.4,0-0.8,0-1.1-0.1
		s-0.5-0.1-0.6-0.2c-0.2-0.1-0.3-0.2-0.3-0.3c-0.1-0.1-0.1-0.3-0.2-0.4l-2.5-7.5c-0.3-0.9-0.7-1.8-1.1-2.4c-0.4-0.7-0.9-1.2-1.5-1.6
		s-1.2-0.8-1.9-1c-0.7-0.2-1.6-0.3-2.5-0.3h-1.4v13c0,0.1,0,0.2-0.1,0.3s-0.2,0.2-0.3,0.2c-0.1,0.1-0.3,0.1-0.6,0.1s-0.6,0.1-1,0.1
		c-0.4,0-0.7,0-0.9-0.1s-0.5-0.1-0.6-0.1c-0.1-0.1-0.2-0.1-0.3-0.2s-0.1-0.2-0.1-0.3v-13h-1.4c-1,0-1.9,0.1-2.6,0.4s-1.4,0.6-2,1
		c-0.6,0.5-1,1-1.4,1.7c-0.4,0.7-0.7,1.4-1,2.2l-2.4,7.5c-0.1,0.2-0.1,0.3-0.2,0.4c-0.1,0.1-0.2,0.2-0.3,0.3
		c-0.2,0.1-0.4,0.1-0.6,0.2s-0.6,0.1-1.1,0.1c-0.4,0-0.7,0-1,0c-0.3,0-0.5-0.1-0.6-0.1s-0.3-0.1-0.3-0.2s-0.1-0.2-0.1-0.3
		c0,0,0-0.1,0-0.2s0-0.2,0-0.3c0-0.1,0.1-0.2,0.1-0.4c0-0.1,0.1-0.3,0.2-0.4l2.3-6.7c0.4-1,0.7-1.9,1.1-2.7c0.4-0.7,0.8-1.4,1.3-1.9
		c0.5-0.5,1-1,1.6-1.3c0.6-0.3,1.3-0.6,2-0.9v0c-0.6-0.2-1.2-0.4-1.7-0.7c-0.5-0.3-1-0.7-1.4-1.2s-0.8-1.1-1.2-1.8s-0.7-1.6-1-2.6
		l-2.1-6.2c-0.1-0.3-0.2-0.5-0.2-0.7c-0.1-0.2-0.1-0.4-0.1-0.6c0-0.1,0-0.2,0.1-0.3c0.1-0.1,0.2-0.2,0.3-0.2
		c0.1-0.1,0.3-0.1,0.6-0.1c0.2,0,0.6,0,1,0c0.4,0,0.8,0,1.1,0.1s0.5,0.1,0.6,0.2c0.2,0.1,0.3,0.2,0.3,0.3c0.1,0.1,0.1,0.3,0.2,0.4
		l2.2,7c0.3,0.8,0.6,1.6,0.9,2.2c0.3,0.6,0.8,1.1,1.3,1.5c0.5,0.4,1.1,0.7,1.8,0.9c0.7,0.2,1.5,0.3,2.5,0.3h1.4v-12.1
		c0-0.1,0-0.2,0.1-0.3s0.2-0.2,0.3-0.2c0.1-0.1,0.3-0.1,0.6-0.1s0.6-0.1,0.9-0.1c0.4,0,0.7,0,1,0.1s0.5,0.1,0.6,0.1s0.3,0.1,0.3,0.2
		s0.1,0.2,0.1,0.3v12.1h1.4c0.9,0,1.7-0.1,2.4-0.3c0.7-0.2,1.3-0.5,1.8-1c0.5-0.4,1-0.9,1.3-1.6c0.4-0.6,0.6-1.3,0.9-2.1l2.2-7
		c0-0.2,0.1-0.3,0.2-0.4c0.1-0.1,0.2-0.2,0.3-0.3c0.1-0.1,0.4-0.1,0.6-0.2c0.3,0,0.6-0.1,1.1-0.1c0.4,0,0.7,0,1,0
		c0.2,0,0.4,0.1,0.6,0.1c0.1,0.1,0.2,0.1,0.3,0.2c0,0.1,0.1,0.2,0.1,0.3c0,0.2,0,0.4-0.1,0.6c-0.1,0.2-0.1,0.4-0.2,0.7l-2.1,6.1
		c-0.3,0.9-0.7,1.7-1,2.4c-0.3,0.7-0.7,1.3-1.1,1.8s-0.9,0.9-1.4,1.2s-1.1,0.6-1.8,0.8v0c0.8,0.3,1.5,0.6,2,0.9s1.1,0.8,1.6,1.4
		c0.5,0.5,0.9,1.2,1.3,1.9c0.4,0.7,0.7,1.6,1.1,2.7l2.3,6.7c0.1,0.2,0.1,0.3,0.2,0.4c0,0.1,0.1,0.2,0.1,0.4c0,0.1,0,0.2,0.1,0.3
		S853.4,309.6,853.4,309.7z"/>
	<path class="st6" d="M882.8,308.7c0,0.3,0,0.5,0,0.7c0,0.2-0.1,0.4-0.2,0.5s-0.2,0.2-0.3,0.3c-0.1,0.1-0.2,0.1-0.3,0.1h-14.4
		c-0.4,0-0.7-0.1-1-0.4s-0.5-0.7-0.5-1.3v-26.5c0-0.6,0.2-1,0.5-1.3c0.3-0.2,0.7-0.4,1-0.4h14.2c0.1,0,0.2,0,0.3,0.1
		c0.1,0.1,0.2,0.2,0.2,0.3c0.1,0.1,0.1,0.3,0.2,0.5c0,0.2,0.1,0.5,0.1,0.8c0,0.3,0,0.5-0.1,0.7c0,0.2-0.1,0.4-0.2,0.5
		s-0.1,0.2-0.2,0.3s-0.2,0.1-0.3,0.1h-11.7v9.3h10.1c0.1,0,0.2,0,0.3,0.1c0.1,0.1,0.2,0.2,0.3,0.3s0.1,0.3,0.2,0.5
		c0,0.2,0,0.5,0,0.8c0,0.3,0,0.5,0,0.7c0,0.2-0.1,0.4-0.2,0.5s-0.2,0.2-0.3,0.3s-0.2,0.1-0.3,0.1h-10.1V307H882c0.1,0,0.2,0,0.3,0.1
		c0.1,0.1,0.2,0.2,0.3,0.3s0.1,0.3,0.2,0.5C882.8,308.1,882.8,308.3,882.8,308.7z"/>
	<path class="st6" d="M917.7,309.7c0,0.1,0,0.2-0.1,0.3c-0.1,0.1-0.2,0.2-0.3,0.2c-0.2,0.1-0.4,0.1-0.6,0.1s-0.6,0.1-0.9,0.1
		c-0.4,0-0.7,0-1-0.1s-0.4-0.1-0.6-0.1c-0.2-0.1-0.3-0.1-0.3-0.2s-0.1-0.2-0.1-0.3v-13.2h-13.6v13.2c0,0.1,0,0.2-0.1,0.3
		s-0.2,0.2-0.3,0.2c-0.2,0.1-0.4,0.1-0.6,0.1s-0.6,0.1-1,0.1c-0.4,0-0.7,0-0.9-0.1c-0.3,0-0.5-0.1-0.6-0.1c-0.2-0.1-0.3-0.1-0.3-0.2
		s-0.1-0.2-0.1-0.3v-28.5c0-0.1,0-0.2,0.1-0.3s0.2-0.2,0.3-0.2s0.4-0.1,0.6-0.1c0.3,0,0.6-0.1,0.9-0.1c0.4,0,0.7,0,1,0.1
		s0.5,0.1,0.6,0.1s0.3,0.1,0.3,0.2s0.1,0.2,0.1,0.3v11.9h13.6v-11.9c0-0.1,0-0.2,0.1-0.3s0.2-0.2,0.3-0.2s0.4-0.1,0.6-0.1
		s0.6-0.1,1-0.1c0.4,0,0.7,0,0.9,0.1s0.5,0.1,0.6,0.1c0.2,0.1,0.3,0.1,0.3,0.2c0.1,0.1,0.1,0.2,0.1,0.3V309.7z"/>
	<path class="st6" d="M954,309.7c0,0.1,0,0.2-0.1,0.3c-0.1,0.1-0.2,0.2-0.3,0.2c-0.2,0.1-0.4,0.1-0.6,0.1s-0.6,0.1-0.9,0.1
		c-0.4,0-0.7,0-1-0.1s-0.4-0.1-0.6-0.1c-0.2-0.1-0.3-0.1-0.3-0.2s-0.1-0.2-0.1-0.3v-13.2h-13.6v13.2c0,0.1,0,0.2-0.1,0.3
		s-0.2,0.2-0.3,0.2c-0.2,0.1-0.4,0.1-0.6,0.1s-0.6,0.1-1,0.1c-0.4,0-0.7,0-0.9-0.1c-0.3,0-0.5-0.1-0.6-0.1c-0.2-0.1-0.3-0.1-0.3-0.2
		s-0.1-0.2-0.1-0.3v-28.5c0-0.1,0-0.2,0.1-0.3s0.2-0.2,0.3-0.2s0.4-0.1,0.6-0.1c0.3,0,0.6-0.1,0.9-0.1c0.4,0,0.7,0,1,0.1
		s0.5,0.1,0.6,0.1s0.3,0.1,0.3,0.2s0.1,0.2,0.1,0.3v11.9h13.6v-11.9c0-0.1,0-0.2,0.1-0.3s0.2-0.2,0.3-0.2s0.4-0.1,0.6-0.1
		s0.6-0.1,1-0.1c0.4,0,0.7,0,0.9,0.1s0.5,0.1,0.6,0.1c0.2,0.1,0.3,0.1,0.3,0.2c0.1,0.1,0.1,0.2,0.1,0.3V309.7z"/>
	<path class="st6" d="M988.3,301c0,1.2-0.2,2.4-0.6,3.5c-0.4,1.1-1,2-1.9,2.9c-0.8,0.9-2,1.6-3.4,2.1s-3.4,0.8-5.9,0.8h-6.3
		c-0.2,0-0.4,0-0.6-0.1s-0.3-0.1-0.5-0.3s-0.3-0.3-0.4-0.5c-0.1-0.2-0.2-0.5-0.2-0.7v-27.5c0-0.1,0-0.2,0.1-0.3s0.2-0.2,0.3-0.2
		c0.2-0.1,0.4-0.1,0.6-0.1c0.3,0,0.6,0,0.9,0c0.4,0,0.7,0,1,0c0.3,0,0.5,0.1,0.6,0.1c0.2,0.1,0.3,0.1,0.3,0.2s0.1,0.2,0.1,0.3v11.2
		h4.1c2.1,0,3.9,0.2,5.2,0.5c1.3,0.4,2.4,0.9,3.3,1.6c0.9,0.7,1.6,1.6,2.2,2.7C988,298.4,988.3,299.6,988.3,301z M984.2,301.4
		c0-0.9-0.1-1.7-0.4-2.4s-0.7-1.3-1.3-1.8c-0.6-0.5-1.3-0.9-2.1-1.1c-0.9-0.3-2.1-0.4-3.8-0.4h-3.8V307h4.1c1.8,0,3.1-0.2,4-0.5
		c0.9-0.4,1.6-0.8,2-1.4c0.5-0.6,0.8-1.2,1-1.8C984.1,302.6,984.2,302,984.2,301.4z M996.9,309.7c0,0.1,0,0.2-0.1,0.3
		c-0.1,0.1-0.2,0.2-0.3,0.2c-0.2,0.1-0.4,0.1-0.6,0.1c-0.3,0-0.6,0-0.9,0c-0.4,0-0.7,0-1,0c-0.2,0-0.5-0.1-0.6-0.1s-0.3-0.1-0.3-0.2
		s-0.1-0.2-0.1-0.3v-28.5c0-0.1,0-0.2,0.1-0.3s0.2-0.2,0.3-0.2c0.2-0.1,0.4-0.1,0.6-0.1c0.3,0,0.6,0,0.9,0c0.4,0,0.7,0,0.9,0
		c0.3,0,0.5,0.1,0.6,0.1c0.2,0.1,0.3,0.1,0.3,0.2c0.1,0.1,0.1,0.2,0.1,0.3V309.7z"/>
	<path class="st6" d="M1034.2,309.7c0,0.1,0,0.2-0.1,0.3s-0.2,0.2-0.3,0.2s-0.4,0.1-0.6,0.1c-0.3,0-0.6,0-1,0c-0.4,0-0.7,0-1,0
		c-0.3,0-0.5-0.1-0.6-0.1c-0.1-0.1-0.3-0.1-0.3-0.2c-0.1-0.1-0.1-0.2-0.1-0.3v-19.5c0-0.5,0-1,0-1.5c0-0.5,0-1,0.1-1.4h0
		c-0.1,0.2-0.3,0.4-0.4,0.7c-0.1,0.2-0.3,0.5-0.5,0.8c-0.2,0.3-0.3,0.5-0.5,0.8s-0.3,0.5-0.5,0.8l-13,19.3c-0.1,0.1-0.2,0.2-0.3,0.3
		s-0.2,0.2-0.4,0.2c-0.1,0.1-0.3,0.1-0.5,0.1c-0.2,0-0.5,0-0.8,0c-0.4,0-0.6,0-0.9,0c-0.2,0-0.4-0.1-0.5-0.1
		c-0.1-0.1-0.2-0.1-0.3-0.2s-0.1-0.2-0.1-0.3v-28.5c0-0.1,0-0.2,0.1-0.3s0.2-0.2,0.3-0.2c0.2-0.1,0.4-0.1,0.6-0.1c0.3,0,0.6,0,0.9,0
		c0.4,0,0.7,0,1,0c0.3,0,0.5,0.1,0.6,0.1c0.2,0.1,0.3,0.1,0.3,0.2s0.1,0.2,0.1,0.3v19.6c0,0.4,0,0.9,0,1.3c0,0.5,0,0.9-0.1,1.4h0
		c0.2-0.4,0.5-0.8,0.9-1.4c0.3-0.5,0.7-1.1,1.1-1.6l12.9-19.3c0.1-0.1,0.2-0.2,0.3-0.3s0.2-0.2,0.4-0.2c0.1-0.1,0.3-0.1,0.5-0.1
		c0.2,0,0.5,0,0.8,0c0.4,0,0.6,0,0.9,0c0.2,0,0.4,0.1,0.5,0.1c0.1,0.1,0.2,0.1,0.3,0.2c0.1,0.1,0.1,0.2,0.1,0.3V309.7z
		 M1030.3,272.9c0,0.8-0.1,1.5-0.4,2.2c-0.3,0.7-0.7,1.3-1.3,1.9s-1.3,1-2.2,1.3c-0.9,0.3-2,0.5-3.3,0.5c-1.2,0-2.2-0.1-3.1-0.4
		c-0.9-0.3-1.6-0.7-2.2-1.2c-0.6-0.5-1-1.2-1.3-1.9c-0.3-0.7-0.5-1.5-0.5-2.4c0-0.2,0-0.3,0.1-0.4c0.1-0.1,0.2-0.2,0.3-0.3
		c0.1-0.1,0.3-0.1,0.6-0.1c0.2,0,0.5,0,0.9,0c0.4,0,0.7,0,0.9,0.1c0.2,0,0.4,0.1,0.5,0.2c0.1,0.1,0.2,0.2,0.2,0.3
		c0,0.1,0.1,0.3,0.1,0.4c0,0.4,0.1,0.8,0.2,1.1c0.2,0.4,0.4,0.7,0.7,1s0.7,0.5,1.1,0.7c0.4,0.2,1,0.3,1.6,0.3c0.6,0,1.1-0.1,1.5-0.3
		c0.4-0.2,0.8-0.4,1.1-0.7c0.3-0.3,0.5-0.6,0.7-1c0.2-0.4,0.2-0.8,0.2-1.2c0-0.1,0-0.3,0.1-0.4c0-0.1,0.1-0.2,0.2-0.3
		c0.1-0.1,0.3-0.1,0.5-0.2c0.2,0,0.5-0.1,0.8-0.1c0.4,0,0.7,0,0.9,0c0.2,0,0.4,0.1,0.6,0.1c0.1,0.1,0.3,0.1,0.3,0.3
		C1030.3,272.6,1030.3,272.7,1030.3,272.9z"/>
	<path class="st6" d="M1086.2,301.5c0,1.1-0.2,2.3-0.5,3.3c-0.4,1.1-0.9,2-1.8,2.8c-0.8,0.8-1.9,1.5-3.2,2s-3.2,0.7-5.5,0.7h-7.2
		c-0.4,0-0.7-0.1-1-0.4s-0.5-0.7-0.5-1.3v-26.4c0-0.6,0.2-1,0.5-1.3c0.3-0.2,0.6-0.4,1-0.4h15.5c0.1,0,0.3,0,0.4,0.1
		c0.1,0.1,0.2,0.2,0.3,0.3c0.1,0.1,0.1,0.3,0.2,0.5s0,0.5,0,0.8c0,0.3,0,0.5,0,0.7c0,0.2-0.1,0.4-0.2,0.5s-0.2,0.2-0.3,0.3
		c-0.1,0.1-0.2,0.1-0.4,0.1h-13.1v9.3h5.5c1.9,0,3.4,0.2,4.7,0.6c1.2,0.4,2.2,0.9,3.1,1.7s1.5,1.6,1.9,2.6
		S1086.2,300.2,1086.2,301.5z M1082.1,301.7c0-0.8-0.1-1.6-0.4-2.2c-0.3-0.7-0.7-1.2-1.2-1.7c-0.5-0.5-1.2-0.8-1.9-1.1
		c-0.8-0.3-1.8-0.4-3.1-0.4h-5v10.7h5.1c1.2,0,2.2-0.1,3-0.4c0.8-0.2,1.4-0.6,1.9-1.1s0.9-1,1.2-1.7S1082.1,302.6,1082.1,301.7z"/>
	<path class="st6" d="M1117.1,289.3c0,1.5-0.2,2.8-0.7,4c-0.5,1.2-1.2,2.2-2.1,3.1s-2,1.5-3.4,1.9s-2.9,0.7-4.8,0.7h-3.4v10.7
		c0,0.1,0,0.2-0.1,0.3c-0.1,0.1-0.2,0.2-0.3,0.2c-0.1,0.1-0.3,0.1-0.6,0.1s-0.6,0.1-1,0.1s-0.7,0-1-0.1s-0.5-0.1-0.6-0.1
		c-0.2-0.1-0.3-0.1-0.3-0.2s-0.1-0.2-0.1-0.3v-27.4c0-0.6,0.2-1,0.5-1.3c0.3-0.3,0.7-0.4,1.1-0.4h6.4c0.6,0,1.3,0,1.9,0.1
		c0.6,0.1,1.3,0.2,2.1,0.3c0.8,0.2,1.6,0.5,2.5,1c0.8,0.5,1.6,1.1,2.1,1.8s1,1.5,1.4,2.4C1117,287.2,1117.1,288.2,1117.1,289.3z
		 M1112.9,289.6c0-1.2-0.2-2.2-0.7-3c-0.5-0.8-1-1.4-1.7-1.8s-1.4-0.7-2.1-0.8c-0.7-0.1-1.4-0.2-2.1-0.2h-3.7v11.9h3.6
		c1.2,0,2.2-0.2,3-0.5c0.8-0.3,1.5-0.7,2-1.3c0.5-0.5,1-1.2,1.2-2C1112.8,291.3,1112.9,290.5,1112.9,289.6z"/>
	<path class="st6" d="M1155.1,295.1c0,2.4-0.3,4.6-0.9,6.5c-0.6,1.9-1.4,3.6-2.6,4.9c-1.1,1.4-2.6,2.4-4.3,3.1
		c-1.7,0.7-3.7,1.1-6,1.1c-2.3,0-4.2-0.3-5.8-1c-1.6-0.7-3-1.6-4.1-2.9c-1.1-1.3-1.9-2.8-2.4-4.7c-0.5-1.9-0.8-4-0.8-6.5
		c0-2.3,0.3-4.5,0.9-6.4c0.6-1.9,1.4-3.5,2.6-4.9c1.1-1.3,2.6-2.4,4.3-3.1c1.7-0.7,3.7-1.1,6-1.1c2.2,0,4.1,0.3,5.8,1s3,1.6,4.1,2.9
		c1.1,1.3,1.9,2.8,2.4,4.7C1154.9,290.6,1155.1,292.7,1155.1,295.1z M1150.9,295.4c0-1.7-0.2-3.2-0.5-4.7c-0.3-1.4-0.8-2.7-1.5-3.8
		c-0.7-1.1-1.6-1.9-2.8-2.5c-1.2-0.6-2.6-0.9-4.3-0.9c-1.7,0-3.2,0.3-4.4,1c-1.2,0.6-2.1,1.5-2.9,2.6c-0.7,1.1-1.3,2.3-1.6,3.8
		s-0.5,2.9-0.5,4.5c0,1.7,0.1,3.3,0.4,4.8s0.8,2.7,1.5,3.8s1.6,1.9,2.8,2.5c1.2,0.6,2.6,0.9,4.4,0.9c1.7,0,3.2-0.3,4.4-1
		c1.2-0.6,2.1-1.5,2.9-2.6c0.7-1.1,1.2-2.4,1.5-3.8C1150.8,298.5,1150.9,297,1150.9,295.4z"/>
	<path class="st6" d="M1188.2,309.7c0,0.1,0,0.3-0.1,0.3c-0.1,0.1-0.2,0.2-0.3,0.2s-0.4,0.1-0.6,0.1c-0.3,0-0.6,0-1,0
		c-0.4,0-0.8,0-1.1-0.1s-0.5-0.1-0.6-0.2c-0.2-0.1-0.3-0.2-0.4-0.3c-0.1-0.1-0.2-0.3-0.2-0.4l-2.8-7.2c-0.4-1-0.8-1.8-1.2-2.5
		c-0.4-0.7-1-1.3-1.5-1.7c-0.6-0.5-1.2-0.8-2-1s-1.6-0.3-2.5-0.3h-1.7v13c0,0.1,0,0.2-0.1,0.3s-0.2,0.2-0.3,0.2
		c-0.2,0.1-0.4,0.1-0.6,0.1s-0.6,0.1-1,0.1c-0.4,0-0.7,0-0.9-0.1c-0.3,0-0.5-0.1-0.6-0.1c-0.2-0.1-0.3-0.1-0.3-0.2s-0.1-0.2-0.1-0.3
		v-28.5c0-0.1,0-0.2,0.1-0.3s0.2-0.2,0.3-0.2s0.4-0.1,0.6-0.1c0.3,0,0.6-0.1,0.9-0.1c0.4,0,0.7,0,1,0.1s0.5,0.1,0.6,0.1
		s0.3,0.1,0.3,0.2s0.1,0.2,0.1,0.3v12.1h1.7c0.9,0,1.7-0.1,2.4-0.3s1.3-0.6,1.8-1c0.5-0.4,1-1,1.4-1.7c0.4-0.7,0.8-1.5,1.1-2.4
		l2.3-6.5c0-0.2,0.1-0.3,0.2-0.4c0.1-0.1,0.2-0.2,0.3-0.3c0.2-0.1,0.4-0.1,0.6-0.2s0.6-0.1,1.1-0.1c0.4,0,0.7,0,1,0
		c0.2,0,0.4,0.1,0.6,0.1c0.1,0.1,0.2,0.1,0.3,0.2c0,0.1,0.1,0.2,0.1,0.3c0,0.2,0,0.4-0.1,0.6c-0.1,0.2-0.1,0.4-0.2,0.7l-2.4,6.2
		c-0.3,0.9-0.7,1.7-1.1,2.4c-0.4,0.7-0.8,1.3-1.2,1.7c-0.4,0.5-0.9,0.9-1.4,1.2s-1.1,0.6-1.7,0.7v0c0.7,0.3,1.4,0.6,1.9,0.9
		c0.6,0.3,1.1,0.8,1.6,1.3c0.5,0.5,0.9,1.1,1.3,1.8c0.4,0.7,0.8,1.6,1.2,2.6l2.8,7.1c0.2,0.4,0.2,0.7,0.3,0.8
		C1188.1,309.4,1188.2,309.5,1188.2,309.7z"/>
	<path class="st6" d="M1217.4,308.7c0,0.3,0,0.5,0,0.7c0,0.2-0.1,0.4-0.2,0.5s-0.2,0.2-0.3,0.3c-0.1,0.1-0.2,0.1-0.3,0.1h-14.4
		c-0.4,0-0.7-0.1-1-0.4s-0.5-0.7-0.5-1.3v-26.5c0-0.6,0.2-1,0.5-1.3c0.3-0.2,0.7-0.4,1-0.4h14.2c0.1,0,0.2,0,0.3,0.1
		c0.1,0.1,0.2,0.2,0.2,0.3c0.1,0.1,0.1,0.3,0.2,0.5c0,0.2,0.1,0.5,0.1,0.8c0,0.3,0,0.5-0.1,0.7c0,0.2-0.1,0.4-0.2,0.5
		s-0.1,0.2-0.2,0.3s-0.2,0.1-0.3,0.1h-11.7v9.3h10.1c0.1,0,0.2,0,0.3,0.1c0.1,0.1,0.2,0.2,0.3,0.3s0.1,0.3,0.2,0.5
		c0,0.2,0,0.5,0,0.8c0,0.3,0,0.5,0,0.7c0,0.2-0.1,0.4-0.2,0.5s-0.2,0.2-0.3,0.3s-0.2,0.1-0.3,0.1h-10.1V307h11.9
		c0.1,0,0.2,0,0.3,0.1c0.1,0.1,0.2,0.2,0.3,0.3s0.1,0.3,0.2,0.5C1217.4,308.1,1217.4,308.3,1217.4,308.7z"/>
	<path class="st6" d="M1249.1,289.3c0,1.5-0.2,2.8-0.7,4c-0.5,1.2-1.2,2.2-2.1,3.1s-2,1.5-3.4,1.9s-2.9,0.7-4.8,0.7h-3.4v10.7
		c0,0.1,0,0.2-0.1,0.3c-0.1,0.1-0.2,0.2-0.3,0.2c-0.1,0.1-0.3,0.1-0.6,0.1s-0.6,0.1-1,0.1s-0.7,0-1-0.1s-0.5-0.1-0.6-0.1
		c-0.2-0.1-0.3-0.1-0.3-0.2s-0.1-0.2-0.1-0.3v-27.4c0-0.6,0.2-1,0.5-1.3c0.3-0.3,0.7-0.4,1.1-0.4h6.4c0.6,0,1.3,0,1.9,0.1
		c0.6,0.1,1.3,0.2,2.1,0.3c0.8,0.2,1.6,0.5,2.5,1c0.8,0.5,1.6,1.1,2.1,1.8s1,1.5,1.4,2.4C1249,287.2,1249.1,288.2,1249.1,289.3z
		 M1244.9,289.6c0-1.2-0.2-2.2-0.7-3c-0.5-0.8-1-1.4-1.7-1.8s-1.4-0.7-2.1-0.8c-0.7-0.1-1.4-0.2-2.1-0.2h-3.7v11.9h3.6
		c1.2,0,2.2-0.2,3-0.5c0.8-0.3,1.5-0.7,2-1.3c0.5-0.5,1-1.2,1.2-2C1244.8,291.3,1244.9,290.5,1244.9,289.6z"/>
</g>
</svg>
